<svg xmlns="http://www.w3.org/2000/svg" width="207" height="144"><g style="line-height:125%"><path d="m 69.881607,965.21007 c -0.623036,0 -1.09309,0.10569 -1.410164,0.31707 -0.31152,0.21139 -0.467278,0.52291 -0.467274,0.93455 -4e-6,0.37827 0.125159,0.67588 0.375488,0.89283 0.255883,0.21138 0.60912,0.31708 1.059709,0.31708 0.561835,0 1.034671,-0.20026 1.418509,-0.60078 0.383825,-0.40608 0.575741,-0.9123 0.575748,-1.51864 l 0,-0.34211 -1.552016,0 m 4.564261,-1.12647 0,5.33193 -3.012245,0 0,-1.38513 c -0.400527,0.5674 -0.851112,0.98183 -1.351756,1.24328 -0.500655,0.25588 -1.109779,0.38383 -1.827373,0.38383 -0.967926,0 -1.755059,-0.28092 -2.3614,-0.84276 -0.600781,-0.56741 -0.901171,-1.30169 -0.90117,-2.20286 -10e-7,-1.09587 0.375486,-1.89969 1.126463,-2.41147 0.756535,-0.51177 1.941406,-0.76766 3.554616,-0.76766 l 1.76062,0 0,-0.23364 c -7e-6,-0.47283 -0.18636,-0.81772 -0.559059,-1.03468 -0.372713,-0.2225 -0.954023,-0.33376 -1.743932,-0.33376 -0.639724,0 -1.234941,0.064 -1.785652,0.19191 -0.550718,0.12795 -1.062493,0.31987 -1.535327,0.57575 l 0,-2.27796 c 0.639717,-0.15575 1.282217,-0.27256 1.927503,-0.35045 0.645278,-0.0834 1.29056,-0.12516 1.935847,-0.12517 1.685515,1e-5 2.900982,0.33378 3.646402,1.00131 0.750966,0.66197 1.126453,1.74115 1.126463,3.23753" style="-inkscape-font-specification:Sans Bold" font-size="17.089" font-weight="700" transform="translate(0 -908.362)" letter-spacing="0" word-spacing="0" fill="#e36a5c" font-family="Sans"/></g><path d="m 204.80444,1031.5719 -199.9428248,0 L 158.64303,921.68895 z" fill="#b2e5e8" stroke="#4c4c4c" stroke-width="2.136" transform="translate(0 -908.362)"/><path style="text-indent:0;text-align:start;line-height:normal;text-transform:none;block-progression:tb;marker:none;-inkscape-font-specification:Sans" d="m 157.34532,923.90552 0.006,106.65148 2.16982,-0.035 0,-104.00176 -1.33778,-3.2704 z" overflow="visible" font-weight="400" font-family="Sans" color="#000" fill="#e36a5c" transform="translate(0 -908.362)"/><g style="line-height:125%"><path d="m 109.23654,1045.4382 c 0.63971,0 1.12645,-0.2336 1.46023,-0.7009 0.33932,-0.4673 0.50898,-1.1459 0.50899,-2.036 -1e-5,-0.89 -0.16967,-1.5687 -0.50899,-2.0359 -0.33378,-0.4673 -0.82052,-0.7009 -1.46023,-0.701 -0.63973,10e-5 -1.13203,0.2365 -1.47692,0.7093 -0.33933,0.4673 -0.509,1.1432 -0.50899,2.0276 -1e-5,0.8845 0.16966,1.5632 0.50899,2.036 0.34489,0.4673 0.83719,0.7009 1.47692,0.7009 m -1.98591,-6.0495 c 0.41164,-0.5451 0.86778,-0.9457 1.36844,-1.2016 0.50064,-0.2614 1.07639,-0.3921 1.72724,-0.3921 1.15149,0 2.09716,0.4589 2.83702,1.3767 0.73984,0.9124 1.10976,2.0889 1.10978,3.5296 -2e-5,1.4408 -0.36994,2.6201 -1.10978,3.538 -0.73986,0.9123 -1.68553,1.3684 -2.83702,1.3684 -0.65085,0 -1.2266,-0.1279 -1.72724,-0.3838 -0.50066,-0.2615 -0.9568,-0.6648 -1.36844,-1.2099 l 0,1.3517 -2.98722,0 0,-12.9835 2.98722,0 0,5.0065" style="-inkscape-font-specification:Sans Bold" font-size="17.089" font-weight="700" transform="translate(0 -908.362)" letter-spacing="0" word-spacing="0" fill="#e36a5c" font-family="Sans"/></g><g style="line-height:125%"><path d="m 198.39638,967.10521 0,2.43649 c -0.40609,-0.27813 -0.81495,-0.48395 -1.22659,-0.61746 -0.40609,-0.1335 -0.82886,-0.20026 -1.26831,-0.20026 -0.83442,0 -1.48527,0.24476 -1.95254,0.73428 -0.46171,0.48397 -0.69257,1.16263 -0.69256,2.03598 -1e-5,0.87336 0.23085,1.5548 0.69256,2.04432 0.46727,0.48397 1.11812,0.72595 1.95254,0.72594 0.46726,10e-6 0.9095,-0.0695 1.32672,-0.2086 0.42276,-0.13907 0.81216,-0.34489 1.16818,-0.61747 l 0,2.44484 c -0.46728,0.17245 -0.94289,0.30039 -1.42685,0.38383 -0.4784,0.089 -0.95958,0.13351 -1.44354,0.13351 -1.68553,0 -3.0039,-0.43111 -3.95514,-1.29335 -0.95123,-0.86779 -1.42685,-2.07213 -1.42685,-3.61302 0,-1.54088 0.47562,-2.74244 1.42685,-3.60468 0.95124,-0.86779 2.26961,-1.30168 3.95514,-1.30169 0.48952,1e-5 0.9707,0.0445 1.44354,0.1335 0.47839,0.0835 0.95401,0.2114 1.42685,0.38384" style="-inkscape-font-specification:Sans Bold" font-size="17.089" font-weight="700" transform="translate(0 -908.362)" letter-spacing="0" word-spacing="0" fill="#e36a5c" font-family="Sans"/></g><g style="line-height:125%"><path d="m 152.94807,980.64344 0,5.69073 -3.0039,0 0,-0.92621 0,-3.41276 c -1e-5,-0.81772 -0.0195,-1.37956 -0.0584,-1.68552 -0.0334,-0.30595 -0.0946,-0.53124 -0.18357,-0.67588 -0.11683,-0.19469 -0.27536,-0.34489 -0.47562,-0.45059 -0.20026,-0.11124 -0.42834,-0.16687 -0.68422,-0.16688 -0.62304,10e-6 -1.11256,0.24199 -1.46857,0.72594 -0.35603,0.47841 -0.53403,1.14316 -0.53403,1.99426 l 0,4.59764 -2.98721,0 0,-12.98353 2.98721,0 0,5.0065 c 0.45058,-0.54514 0.92898,-0.94566 1.4352,-1.20156 0.5062,-0.26144 1.06526,-0.39217 1.67718,-0.39218 1.07917,10e-6 1.89689,0.331 2.45318,0.99296 0.56183,0.66198 0.84275,1.62434 0.84276,2.88708" style="-inkscape-font-specification:Sans Bold" font-size="17.089" font-weight="700" transform="translate(0 -908.362)" letter-spacing="0" word-spacing="0" fill="#e36a5c" font-family="Sans"/></g></svg>